<svg width="168" height="36" viewBox="0 0 168 36" fill="none" xmlns="http://www.w3.org/2000/svg">
<path d="M6.614 29.894H17.194V35H0.174V2.892H6.614V29.894ZM19.6313 22.166C19.6313 19.59 20.1373 17.3053 21.1493 15.312C22.1919 13.3187 23.5873 11.7853 25.3353 10.712C27.1139 9.63867 29.0919 9.102 31.2693 9.102C33.1706 9.102 34.8266 9.48533 36.2373 10.252C37.6786 11.0187 38.8286 11.9847 39.6873 13.15V9.516H46.1733V35H39.6873V31.274C38.8593 32.47 37.7093 33.4667 36.2373 34.264C34.7959 35.0307 33.1246 35.414 31.2233 35.414C29.0766 35.414 27.1139 34.862 25.3353 33.758C23.5873 32.654 22.1919 31.1053 21.1493 29.112C20.1373 27.088 19.6313 24.7727 19.6313 22.166ZM39.6873 22.258C39.6873 20.694 39.3806 19.36 38.7673 18.256C38.1539 17.1213 37.3259 16.2627 36.2833 15.68C35.2406 15.0667 34.1213 14.76 32.9253 14.76C31.7293 14.76 30.6253 15.0513 29.6133 15.634C28.6013 16.2167 27.7733 17.0753 27.1293 18.21C26.5159 19.314 26.2093 20.6327 26.2093 22.166C26.2093 23.6993 26.5159 25.0487 27.1293 26.214C27.7733 27.3487 28.6013 28.2227 29.6133 28.836C30.6559 29.4493 31.7599 29.756 32.9253 29.756C34.1213 29.756 35.2406 29.4647 36.2833 28.882C37.3259 28.2687 38.1539 27.41 38.7673 26.306C39.3806 25.1713 39.6873 23.822 39.6873 22.258ZM66.5851 9.148C69.6211 9.148 72.0744 10.114 73.9451 12.046C75.8157 13.9473 76.7511 16.6153 76.7511 20.05V35H70.3111V20.924C70.3111 18.9 69.8051 17.3513 68.7931 16.278C67.7811 15.174 66.4011 14.622 64.6531 14.622C62.8744 14.622 61.4637 15.174 60.4211 16.278C59.4091 17.3513 58.9031 18.9 58.9031 20.924V35H52.4631V9.516H58.9031V12.69C59.7617 11.586 60.8504 10.7273 62.1691 10.114C63.5184 9.47 64.9904 9.148 66.5851 9.148ZM81.2192 22.166C81.2192 19.59 81.7252 17.3053 82.7372 15.312C83.7798 13.3187 85.1905 11.7853 86.9692 10.712C88.7478 9.63867 90.7258 9.102 92.9032 9.102C94.5592 9.102 96.1385 9.47 97.6412 10.206C99.1438 10.9113 100.34 11.862 101.229 13.058V0.96H107.761V35H101.229V31.228C100.432 32.4853 99.3125 33.4973 97.8712 34.264C96.4298 35.0307 94.7585 35.414 92.8572 35.414C90.7105 35.414 88.7478 34.862 86.9692 33.758C85.1905 32.654 83.7798 31.1053 82.7372 29.112C81.7252 27.088 81.2192 24.7727 81.2192 22.166ZM101.275 22.258C101.275 20.694 100.969 19.36 100.355 18.256C99.7418 17.1213 98.9138 16.2627 97.8712 15.68C96.8285 15.0667 95.7092 14.76 94.5132 14.76C93.3172 14.76 92.2132 15.0513 91.2012 15.634C90.1892 16.2167 89.3612 17.0753 88.7172 18.21C88.1038 19.314 87.7972 20.6327 87.7972 22.166C87.7972 23.6993 88.1038 25.0487 88.7172 26.214C89.3612 27.3487 90.1892 28.2227 91.2012 28.836C92.2438 29.4493 93.3478 29.756 94.5132 29.756C95.7092 29.756 96.8285 29.4647 97.8712 28.882C98.9138 28.2687 99.7418 27.41 100.355 26.306C100.969 25.1713 101.275 23.822 101.275 22.258ZM137.741 21.706C137.741 22.626 137.68 23.454 137.557 24.19H118.927C119.08 26.03 119.724 27.4713 120.859 28.514C121.994 29.5567 123.389 30.078 125.045 30.078C127.437 30.078 129.139 29.0507 130.151 26.996H137.097C136.361 29.4493 134.95 31.4733 132.865 33.068C130.78 34.632 128.219 35.414 125.183 35.414C122.73 35.414 120.522 34.8773 118.559 33.804C116.627 32.7 115.109 31.1513 114.005 29.158C112.932 27.1647 112.395 24.8647 112.395 22.258C112.395 19.6207 112.932 17.3053 114.005 15.312C115.078 13.3187 116.581 11.7853 118.513 10.712C120.445 9.63867 122.668 9.102 125.183 9.102C127.606 9.102 129.768 9.62333 131.669 10.666C133.601 11.7087 135.088 13.196 136.131 15.128C137.204 17.0293 137.741 19.222 137.741 21.706ZM131.071 19.866C131.04 18.21 130.442 16.8913 129.277 15.91C128.112 14.898 126.686 14.392 124.999 14.392C123.404 14.392 122.055 14.8827 120.951 15.864C119.878 16.8147 119.218 18.1487 118.973 19.866H131.071ZM148.882 13.472C149.71 12.1227 150.783 11.0647 152.102 10.298C153.451 9.53133 154.984 9.148 156.702 9.148V15.91H155C152.976 15.91 151.442 16.3853 150.4 17.336C149.388 18.2867 148.882 19.9427 148.882 22.304V35H142.442V9.516H148.882V13.472Z" fill="#313131"/>
<path d="M163.891 35.322C162.726 35.322 161.76 34.9693 160.993 34.264C160.257 33.528 159.889 32.6233 159.889 31.55C159.889 30.4767 160.257 29.5873 160.993 28.882C161.76 28.146 162.726 27.778 163.891 27.778C165.026 27.778 165.961 28.146 166.697 28.882C167.433 29.5873 167.801 30.4767 167.801 31.55C167.801 32.6233 167.433 33.528 166.697 34.264C165.961 34.9693 165.026 35.322 163.891 35.322Z" fill="#0A74F1"/>
</svg>
